<?xml version="1.0" encoding="utf-8"?>
<!-- Generator: Adobe Illustrator 22.0.1, SVG Export Plug-In . SVG Version: 6.00 Build 0)  -->
<svg version="1.1" id="Слой_1" xmlns="http://www.w3.org/2000/svg" xmlns:xlink="http://www.w3.org/1999/xlink" x="0px" y="0px"
	 viewBox="0 0 500 500" style="enable-background:new 0 0 500 500;" xml:space="preserve">
<style type="text/css">
	.st0{fill:url(#SVGID_1_);}
	.st1{fill:#68589A;}
	.st2{fill:#FFFFFF;}
	.st3{fill:#566884;}
	.st4{fill:#DDEBF9;}
	.st5{fill:#374258;}
	.st6{fill:#708BA6;}
	.st7{fill:#D24A45;}
	.st8{fill:#4D5F92;}
	.st9{fill:#537EB0;}
</style>
<linearGradient id="SVGID_1_" gradientUnits="userSpaceOnUse" x1="255.6917" y1="241.434" x2="494.8321" y2="241.434">
	<stop  offset="0" style="stop-color:#BCE1FA;stop-opacity:0.5"/>
	<stop  offset="8.454949e-02" style="stop-color:#A8CDF0;stop-opacity:0.4577"/>
	<stop  offset="0.2828" style="stop-color:#87ADDE;stop-opacity:0.3586"/>
	<stop  offset="0.4776" style="stop-color:#749AD2;stop-opacity:0.2612"/>
	<stop  offset="0.6653" style="stop-color:#688ECA;stop-opacity:0.1674"/>
	<stop  offset="0.843" style="stop-color:#6288C6;stop-opacity:7.851288e-02"/>
	<stop  offset="1" style="stop-color:#6086C4;stop-opacity:0"/>
</linearGradient>
<polygon class="st0" points="255.7,218.9 494.8,50.7 494.8,432.2 255.7,281.9 "/>
<g>
	<circle class="st1" cx="449.5" cy="231" r="35.6"/>
	<g>
		<g id="g3365_2_" transform="translate(420.064,651.1567)">
			<path id="path3367_2_" class="st2" d="M43.8-418.9l-5.7,5.7h-9l-4.9,4.9v-4.9h-7.4V-437h27V-418.9z M13.5-440.2l-1.6,6.6v29.5
				h7.4v4.1h4.1l4.1-4.1h6.6L47-417.3v-22.9H13.5L13.5-440.2z"/>
		</g>
		<path id="path3369_2_" class="st2" d="M445.8,230.6h3.3v-9.8h-3.3V230.6z M454.8,230.6h3.3v-9.8h-3.3V230.6z"/>
	</g>
</g>
<path class="st3" d="M188.8,304.7H19.5c-6.8,0-12.3-5.5-12.3-12.3V210c0-6.8,5.5-12.3,12.3-12.3h169.3c6.8,0,12.3,5.5,12.3,12.3
	v82.4C201.1,299.2,195.6,304.7,188.8,304.7z"/>
<path class="st4" d="M167.3,291.2H40.9c-5.1,0-9.2-4.1-9.2-9.2v-61.5c0-5.1,4.1-9.2,9.2-9.2h126.4c5.1,0,9.2,4.1,9.2,9.2v61.5
	C176.6,287,172.4,291.2,167.3,291.2z"/>
<path class="st3" d="M230.2,271.1h-29.9c-2.7,0-5-2.2-5-5v-29.9c0-2.7,2.2-5,5-5h29.9c2.7,0,5,2.2,5,5v29.9
	C235.2,268.9,232.9,271.1,230.2,271.1z"/>
<rect x="49" y="190.5" class="st5" width="110.4" height="7.1"/>
<rect x="36.5" y="135.6" class="st3" width="135.2" height="54.9"/>
<circle class="st6" cx="61.3" cy="147.6" r="39.2"/>
<circle class="st4" cx="61.3" cy="147.6" r="29.5"/>
<circle class="st6" cx="142.9" cy="136.8" r="49.8"/>
<circle class="st4" cx="142.9" cy="136.8" r="39.9"/>
<rect x="207.5" y="229.8" class="st6" width="15" height="42.5"/>
<polygon class="st6" points="230.2,231.2 230.2,250.3 230.2,251 230.2,270.1 254.2,288.2 254.2,251 254.2,250.3 254.2,213.1 "/>
<polygon class="st3" points="254.2,217.3 255.7,218.9 255.7,281.9 254.2,284 "/>
<g>
	<circle class="st7" cx="391.8" cy="184.2" r="30.4"/>
	<path id="path7_3_" class="st2" d="M410.8,174.7c-0.5-1.7-1.8-3-3.5-3.5
		c-3.1-0.8-15.5-0.8-15.5-0.8s-12.4,0-15.5,0.8c-1.7,0.5-3,1.8-3.5,3.5c-0.8,3.1-0.8,9.5-0.8,9.5s0,6.5,0.8,9.5
		c0.5,1.7,1.8,3,3.5,3.5c3.1,0.8,15.5,0.8,15.5,0.8s12.4,0,15.5-0.8c1.7-0.5,3-1.8,3.5-3.5c0.8-3.1,0.8-9.5,0.8-9.5
		S411.6,177.8,410.8,174.7z"/>
	<polygon id="polygon9_3_" class="st7" points="398.2,184.2 387.9,178.3 387.9,190.2 	"/>
</g>
<g>
	<circle class="st8" cx="365.9" cy="246.5" r="30.4"/>
	<path id="Blue_3_" class="st2" d="M379.6,261.9c0.9,0,1.7-0.8,1.7-1.7v-27.5c0-0.9-0.8-1.7-1.7-1.7h-27.5c-0.9,0-1.7,0.8-1.7,1.7
		v27.5c0,0.9,0.8,1.7,1.7,1.7H379.6z"/>
	<path id="f_2_" class="st8" d="M371.7,261.9v-12h4l0.6-4.7h-4.6v-3c0-1.4,0.4-2.3,2.3-2.3l2.5,0v-4.2c-0.4-0.1-1.9-0.2-3.6-0.2
		c-3.6,0-6,2.2-6,6.2v3.4h-4v4.7h4v12H371.7z"/>
</g>
<g>
	<circle class="st9" cx="413.8" cy="308.8" r="43.9"/>
	<g>
		<path class="st2" d="M406.9,286.4c12.5,0,1.2,0,13.7,0c12.5,0,15.5,3,15.5,15.5c0,12.5,0,1.2,0,13.7c0,12.5-3,15.5-15.5,15.5
			c-12.5,0-1.2,0-13.7,0c-12.5,0-15.5-3-15.5-15.5c0-12.5,0-6.7,0-13.7C391.4,289.4,394.4,286.4,406.9,286.4z"/>
		<path class="st9" d="M431.5,302.1c0.3-0.9,0-1.5-1.2-1.5h-4.1c-1,0-1.5,0.5-1.8,1.1c0,0-2.1,5-5,8.3c-0.9,0.9-1.4,1.2-1.9,1.2
			c-0.3,0-0.6-0.3-0.6-1.2v-8c0-1-0.3-1.5-1.2-1.5h-6.4c-0.6,0-1,0.5-1,0.9c0,1,1.5,1.2,1.6,4v6c0,1.3-0.2,1.5-0.8,1.5
			c-1.4,0-4.7-5.1-6.7-10.8c-0.4-1.1-0.8-1.6-1.8-1.6h-4.1c-1.2,0-1.4,0.5-1.4,1.1c0,1.1,1.4,6.4,6.4,13.5c3.4,4.8,8.1,7.4,12.4,7.4
			c2.6,0,2.9-0.6,2.9-1.6v-3.6c0-1.2,0.2-1.4,1.1-1.4c0.6,0,1.6,0.3,4,2.6c2.8,2.8,3.2,4,4.8,4h4.1c1.2,0,1.7-0.6,1.4-1.7
			c-0.4-1.1-1.7-2.8-3.4-4.8c-0.9-1.1-2.4-2.3-2.8-2.9c-0.6-0.8-0.4-1.1,0-1.8C426.1,311.5,431,304.5,431.5,302.1z"/>
	</g>
</g>
</svg>
