<?xml version="1.0" encoding="utf-8"?>
<!-- Generator: Adobe Illustrator 22.0.1, SVG Export Plug-In . SVG Version: 6.00 Build 0)  -->
<svg version="1.1" id="Слой_1" xmlns="http://www.w3.org/2000/svg" xmlns:xlink="http://www.w3.org/1999/xlink" x="0px" y="0px"
	 viewBox="0 0 500 500" style="enable-background:new 0 0 500 500;" xml:space="preserve">
<style type="text/css">
	.st0{fill:#FFFFFF;}
</style>
<g>
	<path class="st0" d="M315.5,196.3c-8-24.5-33.9-43.7-62.9-43.7c-42,0-69.4,29.2-69.4,61.4c0,32.3,23.1,46.8,69.4,60.9
		c71.5,21.8,124.8,48.9,124.8,113.9c0,65-55.4,107.7-124.8,107.7c-64,0-116.2-41.6-123.7-99.4h40.9c7.5,35.9,41.4,61.4,82.8,61.4
		c46.8,0,83.9-26.5,83.9-69.7c0-34.3-23.1-53.1-83.9-71.3c-71.5-21.3-110.3-47.3-110.3-103.5c0-56.2,44.1-99.4,110.3-99.4
		c53.8,0,97.3,33.8,105.9,81.7H315.5z"/>
</g>
<path class="st0" d="M303.8,380c0,0.1,0,0.1,0,0.2v-0.4C303.8,379.9,303.8,380,303.8,380z"/>
<path class="st0" d="M303.8,379.9c0-0.3,0-0.6,0-0.9h0V379.9z"/>
<path class="st0" d="M493.1,253.1C493.1,119.1,384,10,250,10S6.9,119.1,6.9,253.1c0,98.7,64.5,185.4,149.3,223.4
	c-16.6-16.6-33.5-38.9-38.2-62.5c-46.5-38.2-76.2-96.1-76.2-160.8c0-114.8,93.4-208.2,208.2-208.2c114.8,0,208.2,93.4,208.2,208.2
	c0,61.4-26.7,116.6-69.1,154.7c-2.1,22.9-14.6,42.8-27.9,59.2C437.3,425.9,493.1,345.5,493.1,253.1z"/>
<path class="st0" d="M250,64.1c-99,0-180,78.7-183.7,176.8l28.6-20.2C107.9,146.9,172.5,90.5,250,90.5
	c75.8,0,139.2,53.9,154.1,125.4c13,5.6,22.3,9.7,28.7,12.6C423.1,136.2,344.8,64.1,250,64.1z"/>
</svg>
