<?xml version="1.0" encoding="utf-8"?>
<!-- Generator: Adobe Illustrator 22.0.1, SVG Export Plug-In . SVG Version: 6.00 Build 0)  -->
<svg version="1.1" id="Слой_1" xmlns="http://www.w3.org/2000/svg" xmlns:xlink="http://www.w3.org/1999/xlink" x="0px" y="0px"
	 viewBox="0 0 500 500" style="enable-background:new 0 0 500 500;" xml:space="preserve">
<style type="text/css">
	.st0{fill:#DDEBF9;}
	.st1{fill:#374258;}
	.st2{fill:#F7FBFE;}
	.st3{fill:#A3BFE7;}
	.st4{fill:#4D5F92;}
	.st5{fill:#537EB0;}
	.st6{fill:#68589A;}
	.st7{fill:#FFFFFF;}
	.st8{fill:#D24A45;}
</style>
<path class="st0" d="M476.7,421H23.3c-5.2,0-9.4-4.2-9.4-9.4V113h472.4v298.5C486.2,416.8,482,421,476.7,421z"/>
<path class="st1" d="M476.7,79H23.3c-5.2,0-9.4,4.2-9.4,9.4V113h472.4V88.4C486.2,83.2,482,79,476.7,79z"/>
<circle class="st2" cx="466.7" cy="96" r="8.5"/>
<circle class="st2" cx="445.3" cy="96" r="8.5"/>
<circle class="st2" cx="423.7" cy="96" r="8.5"/>
<rect x="13.8" y="113" class="st2" width="472.4" height="78"/>
<rect x="13.8" y="269" class="st2" width="472.4" height="78"/>
<rect x="13.8" y="191" class="st0" width="472.4" height="78"/>
<rect x="95" y="113" class="st3" width="1.5" height="308"/>
<rect x="253" y="113" class="st3" width="1.5" height="308"/>
<rect x="411" y="113" class="st3" width="1.5" height="308"/>
<rect x="174" y="113" class="st3" width="1.5" height="308"/>
<rect x="332" y="113" class="st3" width="1.5" height="308"/>
<rect x="174.8" y="191" class="st4" width="157.3" height="78"/>
<rect x="96.5" y="269" class="st5" width="156.5" height="78"/>
<g>
	<path class="st3" d="M28.6,117.9v11.9h-1.6v-10.6h-5.5v10.6H20v-11.9H28.6z"/>
	<path class="st3" d="M32.8,117.9v5h5.7v-5h1.6v11.9h-1.6v-5.6h-5.7v5.6h-1.6v-11.9H32.8z"/>
</g>
<g>
	<path class="st3" d="M106.4,129.8v-3.1h-5.3v-1l5.1-7.3h1.7v7.1h1.6v1.2h-1.6v3.1H106.4z M106.4,125.5v-3.8c0-0.6,0-1.2,0.1-1.8
		h-0.1c-0.4,0.7-0.6,1.2-1,1.7l-2.8,3.9v0H106.4z"/>
	<path class="st3" d="M111.8,123.8c-0.6,0-1-0.5-1-1.1c0-0.7,0.4-1.1,1-1.1c0.6,0,1,0.5,1,1.1C112.9,123.3,112.5,123.8,111.8,123.8
		L111.8,123.8z M111.8,130c-0.6,0-1-0.5-1-1.1c0-0.7,0.4-1.1,1-1.1c0.6,0,1,0.5,1,1.1C112.9,129.5,112.5,130,111.8,130L111.8,130z"
		/>
	<path class="st3" d="M118,130c-2.2,0-3.8-2.1-3.8-5.9c0-3.9,1.7-6,4-6c2.4,0,3.8,2.1,3.8,5.8C122,127.9,120.5,130,118,130L118,130z
		 M118.1,128.8c1.6,0,2.3-1.9,2.3-4.8c0-2.8-0.7-4.7-2.3-4.7c-1.4,0-2.3,1.8-2.3,4.7C115.7,127,116.6,128.8,118.1,128.8L118.1,128.8
		z"/>
	<path class="st3" d="M127,130c-2.2,0-3.8-2.1-3.8-5.9c0-3.9,1.7-6,4-6c2.4,0,3.8,2.1,3.8,5.8C131,127.9,129.5,130,127,130L127,130z
		 M127.1,128.8c1.6,0,2.3-1.9,2.3-4.8c0-2.8-0.7-4.7-2.3-4.7c-1.4,0-2.3,1.8-2.3,4.7C124.7,127,125.7,128.8,127.1,128.8L127.1,128.8
		z"/>
</g>
<g>
	<path class="st3" d="M186,118.2c2.2,0,3.3,1.4,3.3,2.8c0,1-0.5,2-1.9,2.7v0.1c1.4,0.6,2.3,1.6,2.3,3c0,2-1.7,3.3-3.9,3.3
		c-2.4,0-3.8-1.4-3.8-3.1c0-1.4,0.9-2.5,2.3-3.1v-0.1c-1.3-0.6-1.8-1.6-1.8-2.6C182.4,119.4,183.9,118.2,186,118.2L186,118.2z
		 M185.9,128.9c1.4,0,2.3-0.9,2.3-2c0-1.4-1-2.1-2.5-2.5c-1.3,0.4-2.1,1.3-2.1,2.4C183.5,127.9,184.4,128.9,185.9,128.9L185.9,128.9
		z M185.9,119.3c-1.3,0-2,0.8-2,1.8c0,1.1,0.9,1.8,2.2,2.1c1-0.3,1.7-1,1.7-2.1C187.8,120.2,187.3,119.3,185.9,119.3L185.9,119.3z"
		/>
	<path class="st3" d="M192.3,123.8c-0.6,0-1-0.5-1-1.1c0-0.7,0.4-1.1,1-1.1c0.6,0,1,0.5,1,1.1C193.4,123.3,193,123.8,192.3,123.8
		L192.3,123.8z M192.3,130c-0.6,0-1-0.5-1-1.1c0-0.7,0.4-1.1,1-1.1c0.6,0,1,0.5,1,1.1C193.4,129.5,193,130,192.3,130L192.3,130z"/>
	<path class="st3" d="M198.5,130c-2.2,0-3.8-2.1-3.8-5.9c0-3.9,1.7-6,4-6c2.4,0,3.8,2.1,3.8,5.8C202.5,127.9,201,130,198.5,130
		L198.5,130z M198.6,128.8c1.6,0,2.3-1.9,2.3-4.8c0-2.8-0.7-4.7-2.3-4.7c-1.4,0-2.3,1.8-2.3,4.7C196.2,127,197.1,128.8,198.6,128.8
		L198.6,128.8z"/>
	<path class="st3" d="M207.5,130c-2.2,0-3.8-2.1-3.8-5.9c0-3.9,1.7-6,4-6c2.4,0,3.8,2.1,3.8,5.8C211.5,127.9,210,130,207.5,130
		L207.5,130z M207.6,128.8c1.6,0,2.3-1.9,2.3-4.8c0-2.8-0.7-4.7-2.3-4.7c-1.4,0-2.3,1.8-2.3,4.7C205.2,127,206.2,128.8,207.6,128.8
		L207.6,128.8z"/>
</g>
<g>
	<path class="st3" d="M264.5,119.8L264.5,119.8l-2,1.1l-0.3-1.2l2.5-1.3h1.3v11.5h-1.5V119.8z"/>
	<path class="st3" d="M270.2,129.8v-1l1.2-1.2c2.9-2.8,4.3-4.3,4.3-6c0-1.2-0.5-2.2-2.3-2.2c-1,0-1.9,0.5-2.4,1l-0.5-1.1
		c0.8-0.7,1.9-1.2,3.2-1.2c2.4,0,3.5,1.7,3.5,3.3c0,2.1-1.5,3.8-3.9,6.2l-0.9,0.8v0h5.1v1.3H270.2z"/>
	<path class="st3" d="M280.4,123.8c-0.6,0-1-0.5-1-1.1c0-0.7,0.4-1.1,1-1.1c0.6,0,1,0.5,1,1.1C281.4,123.3,281,123.8,280.4,123.8
		L280.4,123.8z M280.4,130c-0.6,0-1-0.5-1-1.1c0-0.7,0.4-1.1,1-1.1c0.6,0,1,0.5,1,1.1C281.4,129.5,281,130,280.4,130L280.4,130z"/>
	<path class="st3" d="M286.5,130c-2.2,0-3.8-2.1-3.8-5.9c0-3.9,1.7-6,4-6c2.4,0,3.8,2.1,3.8,5.8C290.5,127.9,289,130,286.5,130
		L286.5,130z M286.6,128.8c1.6,0,2.3-1.9,2.3-4.8c0-2.8-0.7-4.7-2.3-4.7c-1.4,0-2.3,1.8-2.3,4.7C284.2,127,285.2,128.8,286.6,128.8
		L286.6,128.8z"/>
	<path class="st3" d="M295.6,130c-2.2,0-3.8-2.1-3.8-5.9c0-3.9,1.7-6,4-6c2.4,0,3.8,2.1,3.8,5.8C299.5,127.9,298.1,130,295.6,130
		L295.6,130z M295.6,128.8c1.6,0,2.3-1.9,2.3-4.8c0-2.8-0.7-4.7-2.3-4.7c-1.4,0-2.3,1.8-2.3,4.7C293.3,127,294.2,128.8,295.6,128.8
		L295.6,128.8z"/>
</g>
<g>
	<path class="st3" d="M342.7,119.8L342.7,119.8l-2,1.1l-0.3-1.2l2.5-1.3h1.3v11.5h-1.5V119.8z"/>
	<path class="st3" d="M355,119.5c-0.3,0-0.7,0-1.2,0.1c-2.4,0.4-3.7,2.2-4,4.1h0c0.5-0.7,1.5-1.3,2.8-1.3c2,0,3.5,1.5,3.5,3.7
		c0,2.1-1.4,4.1-3.8,4.1c-2.4,0-4-1.9-4-4.9c0-2.3,0.8-4,1.9-5.2c1-0.9,2.2-1.5,3.7-1.7c0.5-0.1,0.8-0.1,1.1-0.1V119.5z
		 M352.3,128.8c1.3,0,2.2-1.1,2.2-2.7s-0.9-2.6-2.4-2.6c-0.9,0-1.8,0.6-2.2,1.4c-0.1,0.2-0.2,0.4-0.2,0.7
		C349.8,127.4,350.7,128.8,352.3,128.8L352.3,128.8z"/>
	<path class="st3" d="M358.6,123.8c-0.6,0-1-0.5-1-1.1c0-0.7,0.4-1.1,1-1.1c0.6,0,1,0.5,1,1.1C359.7,123.3,359.3,123.8,358.6,123.8
		L358.6,123.8z M358.6,130c-0.6,0-1-0.5-1-1.1c0-0.7,0.4-1.1,1-1.1c0.6,0,1,0.5,1,1.1C359.7,129.5,359.3,130,358.6,130L358.6,130z"
		/>
	<path class="st3" d="M364.8,130c-2.2,0-3.8-2.1-3.8-5.9c0-3.9,1.7-6,4-6c2.4,0,3.8,2.1,3.8,5.8C368.7,127.9,367.3,130,364.8,130
		L364.8,130z M364.8,128.8c1.6,0,2.3-1.9,2.3-4.8c0-2.8-0.7-4.7-2.3-4.7c-1.4,0-2.3,1.8-2.3,4.7C362.5,127,363.4,128.8,364.8,128.8
		L364.8,128.8z"/>
	<path class="st3" d="M373.8,130c-2.2,0-3.8-2.1-3.8-5.9c0-3.9,1.7-6,4-6c2.4,0,3.8,2.1,3.8,5.8C377.8,127.9,376.3,130,373.8,130
		L373.8,130z M373.9,128.8c1.6,0,2.3-1.9,2.3-4.8c0-2.8-0.7-4.7-2.3-4.7c-1.4,0-2.3,1.8-2.3,4.7C371.5,127,372.4,128.8,373.9,128.8
		L373.9,128.8z"/>
</g>
<g>
	<path class="st3" d="M417.6,129.8v-1l1.2-1.2c2.9-2.8,4.3-4.3,4.3-6c0-1.2-0.5-2.2-2.3-2.2c-1,0-1.9,0.5-2.4,1l-0.5-1.1
		c0.8-0.7,1.9-1.2,3.2-1.2c2.5,0,3.5,1.7,3.5,3.3c0,2.1-1.5,3.8-3.9,6.2l-0.9,0.8v0h5.1v1.3H417.6z"/>
	<path class="st3" d="M430.3,130c-2.2,0-3.8-2.1-3.8-5.9c0-3.9,1.7-6,4-6c2.4,0,3.8,2.1,3.8,5.8C434.3,127.9,432.8,130,430.3,130
		L430.3,130z M430.4,128.8c1.6,0,2.3-1.9,2.3-4.8c0-2.8-0.7-4.7-2.3-4.7c-1.4,0-2.3,1.8-2.3,4.7C428,127,429,128.8,430.4,128.8
		L430.4,128.8z"/>
	<path class="st3" d="M436.9,123.8c-0.6,0-1-0.5-1-1.1c0-0.7,0.4-1.1,1-1.1c0.6,0,1,0.5,1,1.1C437.9,123.3,437.5,123.8,436.9,123.8
		L436.9,123.8z M436.9,130c-0.6,0-1-0.5-1-1.1c0-0.7,0.4-1.1,1-1.1c0.6,0,1,0.5,1,1.1C437.9,129.5,437.5,130,436.9,130L436.9,130z"
		/>
	<path class="st3" d="M443,130c-2.2,0-3.8-2.1-3.8-5.9c0-3.9,1.7-6,4-6c2.4,0,3.8,2.1,3.8,5.8C447,127.9,445.5,130,443,130L443,130z
		 M443.1,128.8c1.6,0,2.3-1.9,2.3-4.8c0-2.8-0.7-4.7-2.3-4.7c-1.4,0-2.3,1.8-2.3,4.7C440.7,127,441.7,128.8,443.1,128.8L443.1,128.8
		z"/>
	<path class="st3" d="M452.1,130c-2.2,0-3.8-2.1-3.8-5.9c0-3.9,1.7-6,4-6c2.4,0,3.8,2.1,3.8,5.8C456,127.9,454.6,130,452.1,130
		L452.1,130z M452.1,128.8c1.6,0,2.3-1.9,2.3-4.8c0-2.8-0.7-4.7-2.3-4.7c-1.4,0-2.3,1.8-2.3,4.7C449.8,127,450.7,128.8,452.1,128.8
		L452.1,128.8z"/>
</g>
<g>
	<path class="st3" d="M19.5,196.3c0.7-0.2,1.7-0.3,2.8-0.3c1.5,0,2.5,0.3,3.2,0.9c0.6,0.5,1,1.2,1,2.1c0,1.2-0.8,2.2-2,2.6v0.1
		c1.1,0.3,2.4,1.2,2.4,3c0,1-0.4,1.8-1,2.4c-0.8,0.8-2.2,1.1-4.1,1.1c-1.1,0-1.9-0.1-2.4-0.1V196.3z M21,201.2h1.4
		c1.6,0,2.6-0.9,2.6-2c0-1.4-1-1.9-2.6-1.9c-0.7,0-1.1,0.1-1.4,0.1V201.2z M21,206.8c0.3,0.1,0.7,0.1,1.3,0.1c1.6,0,3-0.6,3-2.3
		c0-1.6-1.4-2.3-3.1-2.3H21V206.8z"/>
	<path class="st3" d="M31.2,197.4h-3.6v-1.3h8.8v1.3h-3.6V208h-1.6V197.4z"/>
</g>
<g>
	<path class="st3" d="M22.5,275.8v3.8c0,1.6,0.8,2.6,2.5,2.6c0.8,0,1.7-0.3,2.4-0.7v-5.7h1.6v11.9h-1.6v-5.1h0
		c-0.8,0.5-1.8,0.7-2.9,0.7c-1.6,0-3.5-0.7-3.5-3.6v-4.1H22.5z"/>
	<path class="st3" d="M33.8,277.1h-3.6v-1.3H39v1.3h-3.6v10.6h-1.6V277.1z"/>
</g>
<g>
	<path class="st3" d="M19.5,352.6c0.7-0.2,1.7-0.3,2.8-0.3c1.5,0,2.5,0.3,3.2,0.9c0.6,0.5,1,1.2,1,2.1c0,1.2-0.8,2.2-2,2.6v0.1
		c1.1,0.3,2.4,1.2,2.4,3c0,1-0.4,1.8-1,2.4c-0.8,0.8-2.2,1.1-4.1,1.1c-1.1,0-1.9-0.1-2.4-0.1V352.6z M21,357.5h1.4
		c1.6,0,2.6-0.9,2.6-2c0-1.4-1-1.9-2.6-1.9c-0.7,0-1.1,0.1-1.4,0.1V357.5z M21,363.2c0.3,0.1,0.7,0.1,1.3,0.1c1.6,0,3-0.6,3-2.3
		c0-1.6-1.4-2.3-3.1-2.3H21V363.2z"/>
	<path class="st3" d="M37.2,363.9c-0.5,0.3-1.7,0.6-3.1,0.6c-3.3,0-5.9-2.1-5.9-6c0-3.7,2.5-6.2,6.2-6.2c1.5,0,2.4,0.3,2.8,0.5
		l-0.4,1.3c-0.6-0.3-1.4-0.5-2.4-0.5c-2.8,0-4.6,1.8-4.6,4.9c0,2.9,1.7,4.8,4.5,4.8c1,0,1.9-0.2,2.5-0.5L37.2,363.9z"/>
</g>
<rect x="333.5" y="347" class="st6" width="77.5" height="74"/>
<g>
	<g id="g3365_2_" transform="translate(420.064,651.1567)">
		<path id="path3367_2_" class="st7" d="M-36.3-266.2l-4.6,4.6h-7.2l-3.9,3.9v-3.9H-58v-19h21.6V-266.2z M-60.6-283.2l-1.3,5.2v23.6
			h5.9v3.3h3.3l3.3-3.3h5.2l10.5-10.5v-18.3H-60.6L-60.6-283.2z"/>
	</g>
	<path id="path3369_2_" class="st7" d="M369.3,383.7h2.6v-7.9h-2.6V383.7z M376.5,383.7h2.6v-7.9h-2.6V383.7z"/>
</g>
<g>
	<path id="Blue_3_" class="st7" d="M224.3,243.8c0.8,0,1.5-0.7,1.5-1.5v-24.5c0-0.8-0.7-1.5-1.5-1.5h-24.5c-0.8,0-1.5,0.7-1.5,1.5
		v24.5c0,0.8,0.7,1.5,1.5,1.5H224.3z"/>
	<path id="f_2_" class="st4" d="M217.3,243.8v-10.7h3.6l0.5-4.2h-4.1v-2.7c0-1.2,0.3-2,2.1-2l2.2,0v-3.7c-0.4-0.1-1.7-0.2-3.2-0.2
		c-3.2,0-5.3,1.9-5.3,5.5v3.1h-3.6v4.2h3.6v10.7H217.3z"/>
</g>
<g>
	<path class="st7" d="M169.8,292c9,0,0.9,0,9.8,0s11.1,2.1,11.1,11.1s0,0.9,0,9.8s-2.1,11.1-11.1,11.1s-0.9,0-9.8,0
		s-11.1-2.1-11.1-11.1s0-4.8,0-9.8C158.8,294.1,160.9,292,169.8,292z"/>
	<path class="st5" d="M187.4,303.2c0.2-0.6,0-1.1-0.9-1.1h-2.9c-0.7,0-1.1,0.4-1.3,0.8c0,0-1.5,3.6-3.6,5.9c-0.7,0.7-1,0.9-1.4,0.9
		c-0.2,0-0.5-0.2-0.5-0.8v-5.7c0-0.7-0.2-1.1-0.8-1.1h-4.6c-0.5,0-0.7,0.3-0.7,0.7c0,0.7,1,0.9,1.2,2.8v4.3c0,0.9-0.2,1.1-0.5,1.1
		c-1,0-3.4-3.6-4.8-7.7c-0.3-0.8-0.6-1.1-1.3-1.1h-2.9c-0.8,0-1,0.4-1,0.8c0,0.8,1,4.6,4.6,9.6c2.4,3.4,5.8,5.3,8.8,5.3
		c1.8,0,2.1-0.4,2.1-1.1v-2.6c0-0.8,0.2-1,0.8-1c0.4,0,1.2,0.2,2.9,1.9c2,2,2.3,2.8,3.4,2.8h2.9c0.8,0,1.2-0.4,1-1.2
		c-0.3-0.8-1.2-2-2.4-3.4c-0.7-0.8-1.7-1.7-2-2.1c-0.4-0.6-0.3-0.8,0-1.3C183.5,309.9,187.1,304.9,187.4,303.2z"/>
</g>
<path class="st8" d="M228.8,269c0,0,27,0,27.9-43.9c0.7-34.1,30.6-34.1,30.6-34.1H332v78H228.8z"/>
<g>
	<path id="path7_3_" class="st7" d="M316.3,220.5c-0.5-1.7-1.8-3-3.5-3.5
		c-3.1-0.8-15.5-0.8-15.5-0.8s-12.4,0-15.5,0.8c-1.7,0.5-3,1.8-3.5,3.5c-0.8,3.1-0.8,9.5-0.8,9.5s0,6.5,0.8,9.5
		c0.5,1.7,1.8,3,3.5,3.5c3.1,0.8,15.5,0.8,15.5,0.8s12.4,0,15.5-0.8c1.7-0.5,3-1.8,3.5-3.5c0.8-3.1,0.8-9.5,0.8-9.5
		S317.2,223.6,316.3,220.5z"/>
	<polygon id="polygon9_3_" class="st8" points="303.7,230 293.4,224.1 293.4,235.9 	"/>
</g>
</svg>
