<?xml version="1.0" encoding="utf-8"?>
<!-- Generator: Adobe Illustrator 22.0.1, SVG Export Plug-In . SVG Version: 6.00 Build 0)  -->
<svg version="1.1" id="Слой_1" xmlns="http://www.w3.org/2000/svg" xmlns:xlink="http://www.w3.org/1999/xlink" x="0px" y="0px"
	 viewBox="0 0 500 500" style="enable-background:new 0 0 500 500;" xml:space="preserve">
<style type="text/css">
	.st0{fill:#9F9FA0;}
	.st1{fill:#252B33;}
	.st2{fill:#374258;}
	.st3{fill:#F2F2F2;}
	.st4{fill:#FBE4A7;}
	.st5{fill:#AACDAE;}
	.st6{fill:#DD7B73;}
	.st7{fill:#FFFFFF;}
	.st8{fill:#537EB0;}
	.st9{fill:#506173;}
	.st10{fill:#D24A45;}
	.st11{fill:#68589A;}
	.st12{fill:#4D5F92;}
	.st13{fill:#4B5A6E;}
	.st14{fill:#395744;}
	.st15{fill:#53AD78;}
	.st16{fill:#F7D16F;}
	.st17{fill:#B1874B;}
	.st18{fill:#624832;}
	.st19{fill:#EEB644;}
</style>
<path class="st0" d="M29.5,420.2l438.9,54.1c18.3,2.7,26.2-6.8,26.2-15.6v-381c0-0.1-0.1-0.2-0.2-0.2L17.8,110.3
	c-0.1,0-0.2,0.1-0.2,0.2l-0.8,295.3C16.7,413.2,22.2,419.4,29.5,420.2z"/>
<path class="st1" d="M6.3,83l0.8,29.9l476.1-34.4l11.4,1.8V44.5c0-10.2-5.2-21.3-27.3-19.8L19.8,68.5C12.2,69.2,6.3,75.5,6.3,83z"/>
<path class="st2" d="M5.4,81.2l0.8,29.9l477.1-32.7V39.1c0-8.5-7.3-15.2-15.9-14.4L18.5,66.8C11.1,67.5,5.4,73.8,5.4,81.2z"/>
<path class="st3" d="M18.2,421.1L467,474.3c8.6,1,16.2-5.7,16.2-14.4V78.4L6.2,111.1L5.4,406.7C5.4,414,10.9,420.2,18.2,421.1z"/>
<path class="st4" d="M430.5,56.2c0-9.4-6.4-16.4-14.1-15.5c-7.7,0.8-13.9,9-13.9,18.3s6.2,16.2,13.9,15.5
	C424.1,73.8,430.5,65.6,430.5,56.2z"/>
<path class="st5" d="M393.6,60.1c0-9.4-6.4-16.4-14.1-15.5c-7.7,0.8-13.9,9-13.9,18.3s6.2,16.2,13.9,15.5
	C387.2,77.7,393.6,69.5,393.6,60.1z"/>
<path class="st6" d="M467.4,53.3c0-9.4-6.4-16.4-14.1-15.5c-7.7,0.8-13.9,9-13.9,18.3s6.2,16.2,13.9,15.5
	C461,70.9,467.4,62.7,467.4,53.3z"/>
<polygon class="st7" points="483.3,175.1 6,186.9 6.2,111.1 483.3,78.5 "/>
<polygon class="st3" points="483.3,276.4 5.7,265.7 6,186.9 483.3,175.1 "/>
<polygon class="st7" points="483.3,376.7 5.5,343.6 5.7,265.7 483.3,276.4 "/>
<polygon class="st8" points="145.6,268.8 55.8,266.8 55.8,185.7 145.6,183.5 "/>
<polygon class="st9" points="400.7,274.8 280.2,271.8 280.2,180.1 400.7,176.9 "/>
<polygon class="st10" points="296.8,179.7 197.4,182.2 197.4,98 296.8,91.2 "/>
<polygon class="st11" points="161,436 84.3,427 84.3,349.2 161,354.6 "/>
<polygon class="st12" points="444,469.6 334.2,456.9 334.2,365.9 444,373.6 "/>
<polygon class="st13" points="203.2,97.6 197.4,98 197.4,182.2 203.2,182.1 "/>
<polygon class="st13" points="296.8,179.7 291.6,179.9 291.6,91.6 296.8,91.2 "/>
<polygon class="st13" points="60.8,267 55.8,266.8 55.8,185.7 60.8,185.5 "/>
<polygon class="st13" points="139.6,183.5 145.6,183.3 145.6,268.8 139.6,268.6 "/>
<polygon class="st13" points="340.5,457.7 334.2,456.9 334.2,365.9 340.5,366.4 "/>
<polygon class="st13" points="437.7,468.8 444,469.6 444,373.5 437.7,373.1 "/>
<polygon class="st13" points="161,436.3 156.5,435.6 156.5,354.1 161,354.5 "/>
<polygon class="st13" points="88.5,427.4 84.3,427 84.3,349.2 88.5,349.4 "/>
<polygon class="st14" points="294.2,380.5 139.6,365 139.6,257.7 294.2,261.4 "/>
<polygon class="st15" points="288.8,375.1 132.3,360.1 132.3,255.2 288.8,255.3 "/>
<path class="st7" d="M230.6,324.7c0-22.9-29.8-18.6-29.8-34.1c0-6.1,4.2-10.3,10.7-10.3c5.8,0,9,2.2,13,6.1l4.7-5.2
	c-3.8-4.1-8.3-7.3-15.1-8v-10.6h-6.4v10.7c-9.3,1.4-15.5,8.2-15.5,17.7c0,20.7,29.8,17,29.8,34.3c0,6.6-4,11-11.9,11
	c-6.5,0-11.9-3.2-16.5-7l-4.1,6c4.5,4.2,11.3,7.5,18.2,8.2v10.6h6.4v-10.7C224.2,341.8,230.6,334.7,230.6,324.7z"/>
<path class="st7" d="M124.7,213.2c0.4-1.2,0-2-1.7-2h-5.5c-1.4,0-2,0.7-2.4,1.6c0,0-2.8,6.8-6.8,11.3c-1.3,1.3-1.9,1.7-2.6,1.7
	c-0.4,0-0.9-0.4-0.9-1.6v-10.9c0-1.4-0.4-2-1.6-2h-8.7c-0.9,0-1.4,0.7-1.4,1.3c0,1.3,2,1.6,2.2,5.4v8.1c0,1.8-0.3,2.1-1,2.1
	c-1.9,0-6.4-6.9-9.1-14.7c-0.5-1.5-1.1-2.1-2.5-2.1h-5.5c-1.6,0-1.9,0.7-1.9,1.6c0,1.5,1.9,8.7,8.7,18.3c4.6,6.5,11,10.1,16.8,10.1
	c3.5,0,3.9-0.8,3.9-2.1V234c0-1.6,0.3-1.9,1.4-1.9c0.8,0,2.2,0.4,5.5,3.6c3.7,3.7,4.4,5.4,6.5,5.4h5.5c1.6,0,2.4-0.8,1.9-2.3
	c-0.5-1.6-2.3-3.8-4.7-6.5c-1.3-1.5-3.2-3.2-3.8-4c-0.8-1.1-0.6-1.5,0-2.5C117.3,225.9,124,216.4,124.7,213.2z"/>
<polygon class="st16" points="392.9,240.8 338.4,225.1 286.7,241.4 286.7,171.9 392.9,168.6 "/>
<polygon class="st17" points="392.9,168.7 395.1,177.1 392.9,177.1 "/>
<g>
	<g>
		<path class="st18" d="M327.9,196.8h-1.8v-13.2h7.1v1.5h-5.3v4.2h5v1.5h-5V196.8z"/>
		<path class="st18" d="M338.9,197c-1.5,0-2.7-0.4-3.4-1.2c-0.7-0.8-1.1-2.1-1.1-3.9v-4.3c0-1.4,0.4-2.4,1.1-3.2s1.9-1.1,3.4-1.1
			c1.5,0,2.6,0.4,3.4,1.2c0.7,0.7,1.1,1.8,1.1,3.1v4.3c0,1.8-0.4,3.1-1.1,3.9C341.6,196.6,340.4,197,338.9,197z M338.9,195.6
			c0.9,0,1.6-0.2,2-0.7c0.4-0.5,0.7-1.5,0.7-2.9v-4.5c0-1.9-0.9-2.9-2.6-2.9c-1.8,0-2.6,1-2.6,2.9v4.5c0,1.4,0.2,2.3,0.7,2.9
			C337.3,195.4,338,195.6,338.9,195.6z"/>
		<path class="st18" d="M348.8,190.7h-2.1v6.1h-1.8v-13.2h5c1.2,0,2.1,0.3,2.7,1c0.5,0.6,0.8,1.3,0.8,2.3c0,0.8-0.2,1.5-0.7,2
			c-0.5,0.5-1.1,0.9-1.9,1v0c0.9,0.1,1.4,0.4,1.7,0.8c0.3,0.4,0.5,1.3,0.6,2.6c0,1.5,0.2,2.6,0.5,3.5h-1.9c-0.2-0.4-0.3-1-0.4-1.9
			c0-0.8-0.1-1.7-0.1-2.5C350.9,191.3,350.2,190.7,348.8,190.7z M346.7,185v4.2h2.7c0.6,0,1.1-0.2,1.5-0.7c0.3-0.4,0.5-0.9,0.5-1.5
			c0-0.5-0.1-1-0.4-1.4c-0.3-0.4-0.8-0.6-1.5-0.6H346.7z"/>
	</g>
	<g>
		<path class="st18" d="M320.1,208.5h1.9v0.4c0,0.8,0.3,1.4,0.8,1.8c0.4,0.3,1,0.5,1.7,0.5c1.8,0,2.6-0.7,2.6-2.1
			c0-0.8-0.6-1.5-1.7-2.1c-1.1-0.5-2.1-1.1-3.2-1.6c-1.1-0.8-1.7-1.7-1.7-2.8c0-1.1,0.4-2,1.3-2.7c0.8-0.6,1.8-0.9,3.1-0.9
			c2.9,0,4.2,1.3,4.1,3.9h-2c0-1.6-0.7-2.4-2.3-2.4c-0.6,0-1.2,0.1-1.6,0.4c-0.5,0.3-0.7,0.8-0.7,1.5c0,0.8,0.6,1.5,1.7,2.1
			c1.1,0.5,2.1,1.1,3.2,1.6c1.2,0.8,1.7,1.8,1.7,2.9c0,2.4-1.5,3.7-4.6,3.7c-1.9,0-3.2-0.5-3.8-1.6
			C320.2,210.5,320,209.6,320.1,208.5z"/>
		<path class="st18" d="M328.8,212.4l4.7-13.2h2.4l4.8,13.2h-2.1l-1.1-3.1h-5.7l-1.1,3.1H328.8z M337,207.8l-2.4-7h0l-2.3,7H337z"/>
		<path class="st18" d="M349.4,212.4H342v-13.2h1.9V211h5.4V212.4z"/>
		<path class="st18" d="M359.4,212.4h-7.7v-13.2h7.6v1.5h-5.7v4.2h5.3v1.5h-5.3v4.6h5.9V212.4z"/>
	</g>
</g>
<polygon class="st19" points="293.6,239.3 286.7,241.3 286.7,171.9 293.6,171.7 "/>
<polygon class="st19" points="392.9,240.8 386.1,238.9 386.1,168.8 392.9,168.7 "/>
<g>
	<g id="g3365_1_" transform="translate(420.064,651.1567)">
		<path id="path3367_1_" class="st7" d="M-284.2-256.1l-5.7,5l-8.4-0.6l-4.9,4.3l0.3-4.6l-6.9-0.5l1.5-22.2l25.2,1.7L-284.2-256.1z
			 M-311.2-277.8l-1.9,6l-1.8,27.5l6.9,0.5l-0.3,3.8l3.8,0.3l4.1-3.6l6.1,0.4l13-11.4l1.4-21.4L-311.2-277.8L-311.2-277.8z"/>
	</g>
	<path id="path3369_1_" class="st7" d="M119.2,392.4l3.1,0.2l0.6-9.2l-3.1-0.2L119.2,392.4z M127.6,393l3.1,0.2l0.6-9.2l-3.1-0.2
		L127.6,393z"/>
</g>
<g>
	<path id="Blue_2_" class="st7" d="M411.3,445.4c1.6,0.2,2.9-1,2.9-2.6v-47c0-1.6-1.3-3-2.9-3.1l-44.5-2.7c-1.5-0.1-2.6,1.1-2.6,2.6
		v44.5c0,1.5,1.2,2.9,2.6,3.1L411.3,445.4z"/>
	<path id="f_1_" class="st12" d="M398.1,443.9v-20.1l6.7,0.6l1-7.8l-7.7-0.7v-5c0-2.3,0.6-3.8,3.8-3.5l4.1,0.3v-7.1
		c-0.7-0.1-3.2-0.5-6-0.7c-5.9-0.4-9.8,2.9-9.8,9.6v5.7l-6.5-0.6v7.7l6.5,0.6V443L398.1,443.9z"/>
</g>
<g>
	<path id="path7_2_" class="st7" d="M278.4,119.3c-0.8-2.8-3-4.9-5.9-5.5
		c-5.2-1.1-25.9,0.1-25.9,0.1s-20.3,1.2-25.3,2.8c-2.7,0.9-4.9,3.3-5.6,6.1c-1.3,5.1-1.3,15.6-1.3,15.6s0,10.6,1.3,15.5
		c0.7,2.7,2.9,4.8,5.6,5.5c5.1,1.2,25.3,0.4,25.3,0.4s20.6-0.8,25.9-2.4c2.9-0.9,5.1-3.2,5.9-6.1c1.4-5.3,1.4-16.1,1.4-16.1
		S279.9,124.5,278.4,119.3z"/>
	<polygon id="polygon9_2_" class="st10" points="257.2,136.4 240.1,127.4 240.1,147 	"/>
</g>
</svg>
