<?xml version="1.0" encoding="utf-8"?>
<!-- Generator: Adobe Illustrator 22.0.1, SVG Export Plug-In . SVG Version: 6.00 Build 0)  -->
<svg version="1.1" id="Слой_1" xmlns="http://www.w3.org/2000/svg" xmlns:xlink="http://www.w3.org/1999/xlink" x="0px" y="0px"
	 viewBox="0 0 500 500" style="enable-background:new 0 0 500 500;" xml:space="preserve">
<style type="text/css">
	.st0{fill:#DDEBF9;}
	.st1{fill:#374258;}
	.st2{fill:#F7FBFE;}
	.st3{fill:url(#SVGID_1_);}
	.st4{fill:url(#SVGID_2_);}
	.st5{fill:url(#SVGID_3_);}
	.st6{fill:url(#SVGID_4_);}
	.st7{fill:#AACDAE;}
	.st8{fill:#667666;}
	.st9{fill:#708BA6;}
	.st10{fill:url(#SVGID_5_);}
	.st11{fill:url(#SVGID_6_);}
	.st12{fill:url(#SVGID_7_);}
	.st13{fill:url(#SVGID_8_);}
	.st14{fill:url(#SVGID_9_);}
	.st15{fill:url(#SVGID_10_);}
	.st16{fill:url(#SVGID_11_);}
	.st17{fill:url(#SVGID_12_);}
</style>
<path class="st0" d="M476.7,421H23.3c-5.2,0-9.4-4.2-9.4-9.4V113h472.4v298.5C486.2,416.8,482,421,476.7,421z"/>
<path class="st1" d="M476.7,79H23.3c-5.2,0-9.4,4.2-9.4,9.4V113h472.4V88.4C486.2,83.2,482,79,476.7,79z"/>
<circle class="st2" cx="466.7" cy="96" r="8.5"/>
<circle class="st2" cx="445.3" cy="96" r="8.5"/>
<circle class="st2" cx="423.7" cy="96" r="8.5"/>
<rect x="13.8" y="113" class="st2" width="472.4" height="78"/>
<rect x="13.8" y="269" class="st2" width="472.4" height="78"/>
<rect x="13.8" y="191" class="st0" width="472.4" height="78"/>
<linearGradient id="SVGID_1_" gradientUnits="userSpaceOnUse" x1="23.9804" y1="186.0197" x2="92.5197" y2="117.4803">
	<stop  offset="0" style="stop-color:#B3DDF9;stop-opacity:0.5"/>
	<stop  offset="4.053026e-02" style="stop-color:#AAD2F4;stop-opacity:0.4797"/>
	<stop  offset="0.2491" style="stop-color:#88B1E1;stop-opacity:0.3754"/>
	<stop  offset="0.4536" style="stop-color:#749BD3;stop-opacity:0.2732"/>
	<stop  offset="0.6505" style="stop-color:#698FCA;stop-opacity:0.1747"/>
	<stop  offset="0.8365" style="stop-color:#6288C6;stop-opacity:8.176687e-02"/>
	<stop  offset="1" style="stop-color:#6086C4;stop-opacity:0"/>
</linearGradient>
<path class="st3" d="M27,185.8h62.4c4.4,0,8-3.6,8-8v-51.9c0-4.4-3.6-8-8-8H27c-4.4,0-8,3.6-8,8v51.9C19,182.1,22.6,185.8,27,185.8z
	"/>
<linearGradient id="SVGID_2_" gradientUnits="userSpaceOnUse" x1="23.9804" y1="264.2641" x2="92.5197" y2="195.7248">
	<stop  offset="0" style="stop-color:#B3DDF9;stop-opacity:0.5"/>
	<stop  offset="4.053026e-02" style="stop-color:#AAD2F4;stop-opacity:0.4797"/>
	<stop  offset="0.2491" style="stop-color:#88B1E1;stop-opacity:0.3754"/>
	<stop  offset="0.4536" style="stop-color:#749BD3;stop-opacity:0.2732"/>
	<stop  offset="0.6505" style="stop-color:#698FCA;stop-opacity:0.1747"/>
	<stop  offset="0.8365" style="stop-color:#6288C6;stop-opacity:8.176687e-02"/>
	<stop  offset="1" style="stop-color:#6086C4;stop-opacity:0"/>
</linearGradient>
<path class="st4" d="M27,264h62.4c4.4,0,8-3.6,8-8V204c0-4.4-3.6-8-8-8H27c-4.4,0-8,3.6-8,8V256C19,260.4,22.6,264,27,264z"/>
<linearGradient id="SVGID_3_" gradientUnits="userSpaceOnUse" x1="23.9804" y1="342.2531" x2="92.5197" y2="273.7138">
	<stop  offset="0" style="stop-color:#B3DDF9;stop-opacity:0.5"/>
	<stop  offset="4.053026e-02" style="stop-color:#AAD2F4;stop-opacity:0.4797"/>
	<stop  offset="0.2491" style="stop-color:#88B1E1;stop-opacity:0.3754"/>
	<stop  offset="0.4536" style="stop-color:#749BD3;stop-opacity:0.2732"/>
	<stop  offset="0.6505" style="stop-color:#698FCA;stop-opacity:0.1747"/>
	<stop  offset="0.8365" style="stop-color:#6288C6;stop-opacity:8.176687e-02"/>
	<stop  offset="1" style="stop-color:#6086C4;stop-opacity:0"/>
</linearGradient>
<path class="st5" d="M27,342h62.4c4.4,0,8-3.6,8-8V282c0-4.4-3.6-8-8-8H27c-4.4,0-8,3.6-8,8v51.9C19,338.4,22.6,342,27,342z"/>
<linearGradient id="SVGID_4_" gradientUnits="userSpaceOnUse" x1="24.7068" y1="417.9807" x2="91.7932" y2="350.8943">
	<stop  offset="0" style="stop-color:#B3DDF9;stop-opacity:0.5"/>
	<stop  offset="4.053026e-02" style="stop-color:#AAD2F4;stop-opacity:0.4797"/>
	<stop  offset="0.2491" style="stop-color:#88B1E1;stop-opacity:0.3754"/>
	<stop  offset="0.4536" style="stop-color:#749BD3;stop-opacity:0.2732"/>
	<stop  offset="0.6505" style="stop-color:#698FCA;stop-opacity:0.1747"/>
	<stop  offset="0.8365" style="stop-color:#6288C6;stop-opacity:8.176687e-02"/>
	<stop  offset="1" style="stop-color:#6086C4;stop-opacity:0"/>
</linearGradient>
<path class="st6" d="M26.9,416.9h62.8c4.3,0,7.9-3.5,7.9-7.9v-49.2c0-4.3-3.5-7.9-7.9-7.9H26.9c-4.3,0-7.9,3.5-7.9,7.9V409
	C19,413.4,22.5,416.9,26.9,416.9z"/>
<path class="st0" d="M460,174.8h-72.7c-5.5,0-10-4.5-10-10v-26c0-5.5,4.5-10,10-10H460c5.5,0,10,4.5,10,10v26
	C470,170.3,465.6,174.8,460,174.8z"/>
<path class="st7" d="M460,253h-72.7c-5.5,0-10-4.5-10-10v-26c0-5.5,4.5-10,10-10H460c5.5,0,10,4.5,10,10v26
	C470,248.5,465.6,253,460,253z"/>
<g>
	<path class="st8" d="M402.2,236.8c-0.1-0.1-0.1-0.2-0.1-0.4v-15.7c0-0.2,0-0.3,0.1-0.4c0.1-0.1,0.2-0.2,0.4-0.2h6.6
		c1.7,0,3,0.4,3.8,1.2c0.9,0.8,1.3,1.9,1.3,3.2c0,0.9-0.2,1.6-0.6,2.2s-0.9,1-1.5,1.3c0.7,0.3,1.3,0.9,1.7,1.6s0.7,1.5,0.7,2.4
		c0,0.9-0.2,1.7-0.6,2.4s-1,1.3-1.8,1.8c-0.8,0.4-1.8,0.6-2.9,0.6h-6.7C402.4,236.9,402.3,236.9,402.2,236.8z M408.7,227.3
		c1,0,1.8-0.2,2.4-0.7c0.5-0.5,0.8-1.1,0.8-2c0-0.8-0.3-1.5-0.8-1.9c-0.5-0.4-1.3-0.6-2.4-0.6h-4.5v5.2H408.7z M409,235
		c1,0,1.8-0.3,2.4-0.8c0.6-0.6,0.9-1.3,0.9-2.1c0-0.9-0.3-1.6-0.9-2.1c-0.6-0.5-1.4-0.8-2.4-0.8h-4.7v5.9H409z"/>
	<path class="st8" d="M419.6,235.5c-1.1-1.1-1.7-2.8-1.7-5.1v-9.7c0-0.2,0-0.3,0.1-0.4c0.1-0.1,0.2-0.2,0.4-0.2h1.2
		c0.2,0,0.3,0.1,0.4,0.2c0.1,0.1,0.2,0.2,0.2,0.4v9.8c0,1.6,0.4,2.7,1.1,3.5c0.7,0.8,1.8,1.2,3.1,1.2c1.3,0,2.4-0.4,3.1-1.2
		c0.7-0.8,1.1-1.9,1.1-3.5v-9.8c0-0.2,0-0.3,0.1-0.4c0.1-0.1,0.2-0.2,0.4-0.2h1.2c0.2,0,0.3,0.1,0.4,0.2c0.1,0.1,0.2,0.2,0.2,0.4
		v9.7c0,2.3-0.6,3.9-1.7,5.1c-1.1,1.1-2.7,1.7-4.8,1.7C422.3,237.2,420.7,236.6,419.6,235.5z"/>
	<path class="st8" d="M439.5,236.8c-0.1-0.1-0.2-0.2-0.2-0.4v-5.7l-5.8-9.8c0-0.1-0.1-0.2-0.1-0.3c0-0.1,0-0.2,0.1-0.3
		c0.1-0.1,0.2-0.1,0.3-0.1h1.2c0.3,0,0.5,0.1,0.6,0.4l4.8,7.8l4.7-7.8c0.2-0.3,0.4-0.4,0.6-0.4h1.2c0.1,0,0.2,0,0.3,0.1
		c0.1,0.1,0.2,0.2,0.2,0.3c0,0.1,0,0.2-0.1,0.3l-5.8,9.8v5.7c0,0.2-0.1,0.3-0.2,0.4c-0.1,0.1-0.2,0.2-0.4,0.2h-1.2
		C439.7,236.9,439.6,236.9,439.5,236.8z"/>
</g>
<g>
	<path class="st9" d="M397.2,158.3c-1-0.4-1.7-1-2.2-1.6s-0.8-1.4-0.8-2.2c0-0.1,0-0.2,0.1-0.3c0.1-0.1,0.2-0.1,0.4-0.1h1.2
		c0.3,0,0.5,0.2,0.6,0.5c0.1,0.7,0.6,1.3,1.2,1.7c0.7,0.5,1.7,0.7,2.9,0.7c1.4,0,2.4-0.2,3-0.7s1-1.1,1-2c0-0.5-0.2-1-0.5-1.3
		c-0.3-0.4-0.8-0.7-1.5-0.9c-0.6-0.3-1.6-0.6-2.9-1c-1.2-0.4-2.2-0.7-2.9-1.1c-0.7-0.4-1.3-0.9-1.6-1.5c-0.4-0.6-0.6-1.3-0.6-2.2
		c0-0.9,0.2-1.6,0.7-2.3c0.5-0.7,1.1-1.2,2-1.6c0.9-0.4,1.9-0.6,3.1-0.6c1.2,0,2.3,0.2,3.2,0.7s1.6,1,2,1.7c0.5,0.7,0.7,1.3,0.7,2
		c0,0.1,0,0.3-0.1,0.4c-0.1,0.1-0.2,0.1-0.4,0.1h-1.2c-0.1,0-0.2,0-0.4-0.1s-0.2-0.2-0.2-0.4c-0.1-0.7-0.5-1.3-1.2-1.7
		c-0.7-0.4-1.5-0.7-2.5-0.7c-1.1,0-2,0.2-2.6,0.6c-0.6,0.4-1,1.1-1,1.9c0,0.6,0.1,1,0.4,1.4c0.3,0.4,0.8,0.7,1.4,0.9
		c0.6,0.3,1.5,0.6,2.7,0.9c1.4,0.4,2.4,0.8,3.2,1.2c0.8,0.4,1.4,0.9,1.7,1.4s0.6,1.3,0.6,2.2c0,1.5-0.6,2.7-1.7,3.5
		c-1.1,0.8-2.7,1.3-4.6,1.3C399.3,158.9,398.2,158.7,397.2,158.3z"/>
	<path class="st9" d="M411.3,157.3c-1.1-1.1-1.7-2.7-1.8-5c0-0.5,0-1.2,0-2s0-1.6,0-2c0.1-2.2,0.7-3.8,1.9-4.9
		c1.2-1.1,2.8-1.7,4.8-1.7c2,0,3.6,0.6,4.8,1.7s1.8,2.8,1.8,4.9c0,0.9,0,1.6,0,2c0,0.4,0,1.1,0,2c-0.1,2.2-0.7,3.9-1.8,5
		s-2.7,1.6-4.8,1.6C414.1,158.9,412.5,158.4,411.3,157.3z M419.2,155.8c0.8-0.8,1.2-2,1.2-3.6c0-1,0-1.6,0-1.9c0-0.4,0-1,0-1.9
		c-0.1-1.6-0.5-2.8-1.2-3.6c-0.8-0.8-1.8-1.2-3.1-1.2c-1.3,0-2.3,0.4-3.1,1.2c-0.8,0.8-1.2,2-1.2,3.6c0,0.5,0,1.1,0,1.9
		c0,0.8,0,1.4,0,1.9c0,1.6,0.5,2.8,1.2,3.6c0.8,0.8,1.8,1.2,3.1,1.2C417.4,156.9,418.5,156.6,419.2,155.8z"/>
	<path class="st9" d="M426.5,158.5c-0.1-0.1-0.1-0.2-0.1-0.4v-15.7c0-0.2,0-0.3,0.1-0.4c0.1-0.1,0.2-0.2,0.4-0.2h1.2
		c0.2,0,0.3,0.1,0.4,0.2c0.1,0.1,0.1,0.2,0.1,0.4v14.2h8c0.2,0,0.3,0.1,0.4,0.2c0.1,0.1,0.2,0.2,0.2,0.4v0.9c0,0.2-0.1,0.3-0.2,0.4
		c-0.1,0.1-0.2,0.2-0.4,0.2h-9.7C426.7,158.7,426.6,158.6,426.5,158.5z"/>
	<path class="st9" d="M440,158.5c-0.1-0.1-0.1-0.2-0.1-0.4v-15.7c0-0.2,0-0.3,0.1-0.4c0.1-0.1,0.2-0.2,0.4-0.2h5.4
		c2.4,0,4.2,0.5,5.2,1.6c1.1,1.1,1.6,2.7,1.7,4.9c0,0.5,0,1.1,0,1.9c0,0.8,0,1.4,0,1.9c0,1.5-0.3,2.8-0.7,3.7s-1.2,1.7-2.1,2.1
		c-1,0.5-2.3,0.7-3.9,0.7h-5.5C440.2,158.7,440.1,158.6,440,158.5z M445.8,156.7c1.1,0,2-0.2,2.7-0.5c0.7-0.3,1.1-0.8,1.4-1.5
		s0.5-1.6,0.5-2.7c0-1,0-1.6,0-1.8c0-0.3,0-0.8,0-1.8c0-1.6-0.4-2.8-1.1-3.5c-0.7-0.7-1.9-1.1-3.6-1.1h-3.6v12.8H445.8z"/>
</g>
<path class="st7" d="M460,331h-72.7c-5.5,0-10-4.5-10-10v-26c0-5.5,4.5-10,10-10H460c5.5,0,10,4.5,10,10v26
	C470,326.5,465.6,331,460,331z"/>
<g>
	<path class="st8" d="M402.2,314.8c-0.1-0.1-0.1-0.2-0.1-0.4v-15.7c0-0.2,0-0.3,0.1-0.4c0.1-0.1,0.2-0.2,0.4-0.2h6.6
		c1.7,0,3,0.4,3.8,1.2s1.3,1.9,1.3,3.2c0,0.9-0.2,1.6-0.6,2.2c-0.4,0.6-0.9,1-1.5,1.3c0.7,0.3,1.3,0.9,1.7,1.6s0.7,1.5,0.7,2.4
		c0,0.9-0.2,1.7-0.6,2.4c-0.4,0.7-1,1.3-1.8,1.8c-0.8,0.4-1.8,0.6-2.9,0.6h-6.7C402.4,314.9,402.3,314.9,402.2,314.8z M408.7,305.3
		c1,0,1.8-0.2,2.4-0.7s0.8-1.1,0.8-2c0-0.8-0.3-1.5-0.8-1.9c-0.5-0.4-1.3-0.6-2.4-0.6h-4.5v5.2H408.7z M409,313c1,0,1.8-0.3,2.4-0.8
		c0.6-0.6,0.9-1.3,0.9-2.1c0-0.9-0.3-1.6-0.9-2.1c-0.6-0.5-1.4-0.8-2.4-0.8h-4.7v5.9H409z"/>
	<path class="st8" d="M419.6,313.5c-1.1-1.1-1.7-2.8-1.7-5.1v-9.7c0-0.2,0-0.3,0.1-0.4c0.1-0.1,0.2-0.2,0.4-0.2h1.2
		c0.2,0,0.3,0.1,0.4,0.2c0.1,0.1,0.2,0.2,0.2,0.4v9.8c0,1.6,0.4,2.7,1.1,3.5c0.7,0.8,1.8,1.2,3.1,1.2c1.3,0,2.4-0.4,3.1-1.2
		c0.7-0.8,1.1-1.9,1.1-3.5v-9.8c0-0.2,0-0.3,0.1-0.4c0.1-0.1,0.2-0.2,0.4-0.2h1.2c0.2,0,0.3,0.1,0.4,0.2c0.1,0.1,0.2,0.2,0.2,0.4
		v9.7c0,2.3-0.6,3.9-1.7,5.1c-1.1,1.1-2.7,1.7-4.8,1.7C422.3,315.2,420.7,314.6,419.6,313.5z"/>
	<path class="st8" d="M439.5,314.8c-0.1-0.1-0.2-0.2-0.2-0.4v-5.7l-5.8-9.8c0-0.1-0.1-0.2-0.1-0.3c0-0.1,0-0.2,0.1-0.3
		c0.1-0.1,0.2-0.1,0.3-0.1h1.2c0.3,0,0.5,0.1,0.6,0.4l4.8,7.8l4.7-7.8c0.2-0.3,0.4-0.4,0.6-0.4h1.2c0.1,0,0.2,0,0.3,0.1
		c0.1,0.1,0.2,0.2,0.2,0.3c0,0.1,0,0.2-0.1,0.3l-5.8,9.8v5.7c0,0.2-0.1,0.3-0.2,0.4c-0.1,0.1-0.2,0.2-0.4,0.2h-1.2
		C439.7,314.9,439.6,314.9,439.5,314.8z"/>
</g>
<path class="st7" d="M460,406h-72.7c-5.5,0-10-4.5-10-10v-26c0-5.5,4.5-10,10-10H460c5.5,0,10,4.5,10,10v26
	C470,401.5,465.6,406,460,406z"/>
<g>
	<path class="st8" d="M402.2,389.8c-0.1-0.1-0.1-0.2-0.1-0.4v-15.7c0-0.2,0-0.3,0.1-0.4c0.1-0.1,0.2-0.2,0.4-0.2h6.6
		c1.7,0,3,0.4,3.8,1.2s1.3,1.9,1.3,3.2c0,0.9-0.2,1.6-0.6,2.2c-0.4,0.6-0.9,1-1.5,1.3c0.7,0.3,1.3,0.9,1.7,1.6s0.7,1.5,0.7,2.4
		c0,0.9-0.2,1.7-0.6,2.4c-0.4,0.7-1,1.3-1.8,1.8c-0.8,0.4-1.8,0.6-2.9,0.6h-6.7C402.4,389.9,402.3,389.9,402.2,389.8z M408.7,380.3
		c1,0,1.8-0.2,2.4-0.7s0.8-1.1,0.8-2c0-0.8-0.3-1.5-0.8-1.9c-0.5-0.4-1.3-0.6-2.4-0.6h-4.5v5.2H408.7z M409,388c1,0,1.8-0.3,2.4-0.8
		c0.6-0.6,0.9-1.3,0.9-2.1c0-0.9-0.3-1.6-0.9-2.1c-0.6-0.5-1.4-0.8-2.4-0.8h-4.7v5.9H409z"/>
	<path class="st8" d="M419.6,388.5c-1.1-1.1-1.7-2.8-1.7-5.1v-9.7c0-0.2,0-0.3,0.1-0.4c0.1-0.1,0.2-0.2,0.4-0.2h1.2
		c0.2,0,0.3,0.1,0.4,0.2c0.1,0.1,0.2,0.2,0.2,0.4v9.8c0,1.6,0.4,2.7,1.1,3.5c0.7,0.8,1.8,1.2,3.1,1.2c1.3,0,2.4-0.4,3.1-1.2
		c0.7-0.8,1.1-1.9,1.1-3.5v-9.8c0-0.2,0-0.3,0.1-0.4c0.1-0.1,0.2-0.2,0.4-0.2h1.2c0.2,0,0.3,0.1,0.4,0.2c0.1,0.1,0.2,0.2,0.2,0.4
		v9.7c0,2.3-0.6,3.9-1.7,5.1c-1.1,1.1-2.7,1.7-4.8,1.7C422.3,390.2,420.7,389.6,419.6,388.5z"/>
	<path class="st8" d="M439.5,389.8c-0.1-0.1-0.2-0.2-0.2-0.4v-5.7l-5.8-9.8c0-0.1-0.1-0.2-0.1-0.3c0-0.1,0-0.2,0.1-0.3
		c0.1-0.1,0.2-0.1,0.3-0.1h1.2c0.3,0,0.5,0.1,0.6,0.4l4.8,7.8l4.7-7.8c0.2-0.3,0.4-0.4,0.6-0.4h1.2c0.1,0,0.2,0,0.3,0.1
		c0.1,0.1,0.2,0.2,0.2,0.3c0,0.1,0,0.2-0.1,0.3l-5.8,9.8v5.7c0,0.2-0.1,0.3-0.2,0.4c-0.1,0.1-0.2,0.2-0.4,0.2h-1.2
		C439.7,389.9,439.6,389.9,439.5,389.8z"/>
</g>
<linearGradient id="SVGID_5_" gradientUnits="userSpaceOnUse" x1="114.3333" y1="123.25" x2="233.3333" y2="123.25">
	<stop  offset="0" style="stop-color:#B3DDF9;stop-opacity:0.5"/>
	<stop  offset="0.6766" style="stop-color:#7299D1;stop-opacity:0.1617"/>
	<stop  offset="1" style="stop-color:#6086C4;stop-opacity:0"/>
</linearGradient>
<path class="st10" d="M230,128.8H117.7c-1.9,0-3.4-1.5-3.4-3.4v-4.3c0-1.9,1.5-3.4,3.4-3.4H230c1.9,0,3.4,1.5,3.4,3.4v4.3
	C233.3,127.2,231.8,128.8,230,128.8z"/>
<linearGradient id="SVGID_6_" gradientUnits="userSpaceOnUse" x1="114.3333" y1="146.224" x2="292.3333" y2="146.224">
	<stop  offset="0" style="stop-color:#B3DDF9;stop-opacity:0.5"/>
	<stop  offset="0.6766" style="stop-color:#7299D1;stop-opacity:0.1617"/>
	<stop  offset="1" style="stop-color:#6086C4;stop-opacity:0"/>
</linearGradient>
<path class="st11" d="M286.1,158.7H120.5c-3.4,0-6.2-2.8-6.2-6.2V140c0-3.4,2.8-6.2,6.2-6.2h165.6c3.4,0,6.2,2.8,6.2,6.2v12.5
	C292.3,155.9,289.6,158.7,286.1,158.7z"/>
<linearGradient id="SVGID_7_" gradientUnits="userSpaceOnUse" x1="114.3333" y1="229.4111" x2="292.3333" y2="229.4111">
	<stop  offset="0" style="stop-color:#B3DDF9;stop-opacity:0.5"/>
	<stop  offset="0.6766" style="stop-color:#7299D1;stop-opacity:0.1617"/>
	<stop  offset="1" style="stop-color:#6086C4;stop-opacity:0"/>
</linearGradient>
<path class="st12" d="M286.1,241.9H120.5c-3.4,0-6.2-2.8-6.2-6.2v-12.5c0-3.4,2.8-6.2,6.2-6.2h165.6c3.4,0,6.2,2.8,6.2,6.2v12.5
	C292.3,239.1,289.6,241.9,286.1,241.9z"/>
<linearGradient id="SVGID_8_" gradientUnits="userSpaceOnUse" x1="114.3333" y1="302.963" x2="292.3333" y2="302.963">
	<stop  offset="0" style="stop-color:#B3DDF9;stop-opacity:0.5"/>
	<stop  offset="0.6766" style="stop-color:#7299D1;stop-opacity:0.1617"/>
	<stop  offset="1" style="stop-color:#6086C4;stop-opacity:0"/>
</linearGradient>
<path class="st13" d="M286.1,315.4H120.5c-3.4,0-6.2-2.8-6.2-6.2v-12.5c0-3.4,2.8-6.2,6.2-6.2h165.6c3.4,0,6.2,2.8,6.2,6.2v12.5
	C292.3,312.7,289.6,315.4,286.1,315.4z"/>
<linearGradient id="SVGID_9_" gradientUnits="userSpaceOnUse" x1="114.3333" y1="380.4409" x2="292.3333" y2="380.4409">
	<stop  offset="0" style="stop-color:#B3DDF9;stop-opacity:0.5"/>
	<stop  offset="0.6766" style="stop-color:#7299D1;stop-opacity:0.1617"/>
	<stop  offset="1" style="stop-color:#6086C4;stop-opacity:0"/>
</linearGradient>
<path class="st14" d="M286.1,392.9H120.5c-3.4,0-6.2-2.8-6.2-6.2v-12.5c0-3.4,2.8-6.2,6.2-6.2h165.6c3.4,0,6.2,2.8,6.2,6.2v12.5
	C292.3,390.1,289.6,392.9,286.1,392.9z"/>
<linearGradient id="SVGID_10_" gradientUnits="userSpaceOnUse" x1="114.3333" y1="205" x2="233.3333" y2="205">
	<stop  offset="0" style="stop-color:#B3DDF9;stop-opacity:0.5"/>
	<stop  offset="0.6766" style="stop-color:#7299D1;stop-opacity:0.1617"/>
	<stop  offset="1" style="stop-color:#6086C4;stop-opacity:0"/>
</linearGradient>
<path class="st15" d="M230,210.5H117.7c-1.9,0-3.4-1.5-3.4-3.4v-4.3c0-1.9,1.5-3.4,3.4-3.4H230c1.9,0,3.4,1.5,3.4,3.4v4.3
	C233.3,209,231.8,210.5,230,210.5z"/>
<linearGradient id="SVGID_11_" gradientUnits="userSpaceOnUse" x1="114.3333" y1="279.739" x2="233.3333" y2="279.739">
	<stop  offset="0" style="stop-color:#B3DDF9;stop-opacity:0.5"/>
	<stop  offset="0.6766" style="stop-color:#7299D1;stop-opacity:0.1617"/>
	<stop  offset="1" style="stop-color:#6086C4;stop-opacity:0"/>
</linearGradient>
<path class="st16" d="M230,285.2H117.7c-1.9,0-3.4-1.5-3.4-3.4v-4.3c0-1.9,1.5-3.4,3.4-3.4H230c1.9,0,3.4,1.5,3.4,3.4v4.3
	C233.3,283.7,231.8,285.2,230,285.2z"/>
<linearGradient id="SVGID_12_" gradientUnits="userSpaceOnUse" x1="114.3333" y1="357.4724" x2="233.3333" y2="357.4724">
	<stop  offset="0" style="stop-color:#B3DDF9;stop-opacity:0.5"/>
	<stop  offset="0.6766" style="stop-color:#7299D1;stop-opacity:0.1617"/>
	<stop  offset="1" style="stop-color:#6086C4;stop-opacity:0"/>
</linearGradient>
<path class="st17" d="M230,363H117.7c-1.9,0-3.4-1.5-3.4-3.4v-4.3c0-1.9,1.5-3.4,3.4-3.4H230c1.9,0,3.4,1.5,3.4,3.4v4.3
	C233.3,361.5,231.8,363,230,363z"/>
</svg>
