<?xml version="1.0" encoding="utf-8"?>
<!-- Generator: Adobe Illustrator 22.0.1, SVG Export Plug-In . SVG Version: 6.00 Build 0)  -->
<svg version="1.1" id="Слой_1" xmlns="http://www.w3.org/2000/svg" xmlns:xlink="http://www.w3.org/1999/xlink" x="0px" y="0px"
	 viewBox="0 0 500 500" style="enable-background:new 0 0 500 500;" xml:space="preserve">
<style type="text/css">
	.st0{fill:none;stroke:#95B4D9;stroke-width:1.7668;stroke-miterlimit:10;}
	.st1{fill:#95B7E0;}
	.st2{fill:#374258;}
	.st3{fill:#FFFFFF;}
	.st4{fill:#D45453;}
	.st5{fill:#EFEFEF;}
	.st6{fill:none;stroke:#374258;stroke-width:2.3133;stroke-miterlimit:10;}
	.st7{fill:#D24A45;}
	.st8{fill:#3A4457;}
	.st9{fill:#4D5F92;}
	.st10{fill:#68589A;}
	.st11{fill:#537EB0;}
</style>
<g>
	<path class="st0" d="M334.8,26.4v88.5c0,11.9-4.7,23.2-13.1,31.6l-39,39"/>
	<path class="st0" d="M184,13.4v101.4c0,11.9,4.7,23.2,13.1,31.6l39,39"/>
	<line class="st0" x1="259.6" y1="185.4" x2="259.6" y2="3.2"/>
	<ellipse class="st1" cx="259.6" cy="208.5" rx="48.3" ry="46.4"/>
</g>
<path class="st2" d="M287.7,256.6h-56.2c-3.4,0-6.2-2.8-6.2-6.2v-9.2h68.6v9.2C293.9,253.8,291.1,256.6,287.7,256.6z"/>
<g>
	<path class="st2" d="M208.4,31.8l-8.1,6v-3c0-1.6-1.3-3-3-3h-27c-1.6,0-3,1.3-3,3v16.3c0,1.6,1.3,3,3,3h27c1.6,0,3-1.3,3-3v-3
		l8.1,6V31.8z"/>
	<circle class="st3" cx="183.8" cy="43" r="8.2"/>
</g>
<g>
	<path class="st2" d="M358.3,31.8l-8.1,6v-3c0-1.6-1.3-3-3-3h-27c-1.6,0-3,1.3-3,3v16.3c0,1.6,1.3,3,3,3h27c1.6,0,3-1.3,3-3v-3
		l8.1,6V31.8z"/>
	<circle class="st3" cx="333.7" cy="43" r="8.2"/>
</g>
<g>
	<path class="st2" d="M208.4,59.3l-8.1,6v-3c0-1.6-1.3-3-3-3h-27c-1.6,0-3,1.3-3,3v16.3c0,1.6,1.3,3,3,3h27c1.6,0,3-1.3,3-3v-3
		l8.1,6V59.3z"/>
	<circle class="st3" cx="183.8" cy="70.4" r="8.2"/>
</g>
<g>
	<path class="st2" d="M282.7,59.3l-8.1,6v-3c0-1.6-1.3-3-3-3h-27c-1.6,0-3,1.3-3,3v16.3c0,1.6,1.3,3,3,3h27c1.6,0,3-1.3,3-3v-3
		l8.1,6V59.3z"/>
	
		<ellipse transform="matrix(0.1735 -0.9848 0.9848 0.1735 143.9866 312.3709)" class="st3" cx="258.1" cy="70.4" rx="8.2" ry="8.2"/>
</g>
<g>
	<path class="st2" d="M208.4,87.6l-8.1,6v-3c0-1.6-1.3-3-3-3h-27c-1.6,0-3,1.3-3,3v16.3c0,1.6,1.3,3,3,3h27c1.6,0,3-1.3,3-3v-3
		l8.1,6V87.6z"/>
	<circle class="st3" cx="183.8" cy="98.8" r="8.2"/>
</g>
<g>
	<path class="st2" d="M358.3,87.6l-8.1,6v-3c0-1.6-1.3-3-3-3h-27c-1.6,0-3,1.3-3,3v16.3c0,1.6,1.3,3,3,3h27c1.6,0,3-1.3,3-3v-3
		l8.1,6V87.6z"/>
	<circle class="st3" cx="333.7" cy="98.8" r="8.2"/>
</g>
<g>
	<g>
		<circle class="st4" cx="246.5" cy="248.9" r="3.4"/>
	</g>
	<g>
		<path class="st5" d="M253.5,251.7l-0.1-0.1v-5.5c0-0.1,0-0.1,0.1-0.1l0.1-0.1h0.4c0.1,0,0.1,0,0.1,0.1l0.1,0.1v5h2.8
			c0.1,0,0.1,0,0.1,0.1l0.1,0.1v0.3c0,0.1,0,0.1-0.1,0.1l-0.1,0.1h-3.4C253.6,251.8,253.6,251.7,253.5,251.7z"/>
		<path class="st5" d="M258.3,251.7l-0.1-0.1v-5.5c0-0.1,0-0.1,0.1-0.1l0.1-0.1h0.4c0.1,0,0.1,0,0.1,0v0.1v5.5c0,0.1,0,0.1-0.1,0.1
			l-0.1,0.1H258.3C258.3,251.8,258.3,251.7,258.3,251.7z"/>
		<path class="st5" d="M261.9,251.5l-1.9-5.4V246c0,0,0-0.1,0.1-0.1h0.1h0.4c0.1,0,0.1,0,0.1,0l0.1,0.1l1.7,4.8l1.7-4.8
			c0,0,0-0.1,0.1-0.1h0.1h0.4h0.1l0.1,0.1v0.1l-1.9,5.4c-0.1,0.1-0.2,0.2-0.3,0.2h-0.5C262.1,251.8,262,251.7,261.9,251.5z"/>
		<path class="st5" d="M266.1,251.7l-0.1-0.1v-5.5c0-0.1,0-0.1,0.1-0.1l0.1-0.1h3.5c0.1,0,0.1,0,0.1,0.1l0.1,0.1v0.3
			c0,0.1,0,0.1-0.1,0.1l-0.1,0.1h-2.9v1.9h2.7c0.1,0,0.1,0,0.1,0.1l0.1,0.1v0.3c0,0.1,0,0.1-0.1,0.1l-0.1,0.1h-2.7v1.9h2.9
			c0.1,0,0.1,0,0.1,0.1l0.1,0.1v0.3c0,0.1,0,0.1-0.1,0.1l-0.1,0.1h-3.5C266.1,251.8,266.1,251.7,266.1,251.7z"/>
	</g>
</g>
<path class="st6" d="M269.2,255c0,0-5.9,138.7,103.2,138.7"/>
<g>
	<circle class="st7" cx="392.3" cy="392.8" r="20"/>
	<path id="path7" class="st3" d="M404.8,386.5c-0.3-1.1-1.2-2-2.3-2.3c-2-0.6-10.2-0.6-10.2-0.6s-8.1,0-10.2,0.5
		c-1.1,0.3-2,1.2-2.3,2.3c-0.5,2-0.5,6.3-0.5,6.3s0,4.2,0.5,6.3c0.3,1.1,1.2,2,2.3,2.3c2.1,0.6,10.2,0.6,10.2,0.6s8.1,0,10.2-0.5
		c1.1-0.3,2-1.2,2.3-2.3c0.5-2,0.5-6.3,0.5-6.3S405.4,388.5,404.8,386.5z"/>
	<polygon id="polygon9" class="st7" points="396.5,392.8 389.7,388.9 389.7,396.6 	"/>
</g>
<path class="st6" d="M264.5,255c0,0-5.3,178.9,62.4,212.5"/>
<path class="st6" d="M258.8,254.9c0,0,7.5,147-41.1,169.3"/>
<g>
	<circle class="st8" cx="341.9" cy="475" r="24"/>
	<path class="st3" d="M337.9,461.9c7.3,0,0.7,0,8,0s9.1,1.7,9.1,9.1s0,0.7,0,8s-1.7,9.1-9.1,9.1c-7.3,0-0.7,0-8,0s-9.1-1.7-9.1-9.1
		c0-7.3,0-3.9,0-8C328.8,463.6,330.6,461.9,337.9,461.9z"/>
	<path class="st8" d="M350.3,470.9c0.1-0.4,0-0.7-0.6-0.7h-1.9c-0.5,0-0.7,0.3-0.8,0.5c0,0-1,2.4-2.3,3.9c-0.4,0.4-0.6,0.6-0.9,0.6
		c-0.1,0-0.3-0.1-0.3-0.5v-3.8c0-0.5-0.1-0.7-0.5-0.7h-3c-0.3,0-0.5,0.2-0.5,0.4c0,0.5,0.7,0.6,0.8,1.9v2.8c0,0.6-0.1,0.7-0.4,0.7
		c-0.6,0-2.2-2.4-3.2-5.1c-0.2-0.5-0.4-0.7-0.9-0.7h-1.9c-0.5,0-0.7,0.3-0.7,0.5c0,0.5,0.6,3,3,6.3c1.6,2.3,3.8,3.5,5.8,3.5
		c1.2,0,1.4-0.3,1.4-0.7v-1.7c0-0.5,0.1-0.7,0.5-0.7c0.3,0,0.8,0.1,1.9,1.2c1.3,1.3,1.5,1.9,2.2,1.9h1.9c0.5,0,0.8-0.3,0.7-0.8
		c-0.2-0.5-0.8-1.3-1.6-2.2c-0.4-0.5-1.1-1.1-1.3-1.4c-0.3-0.4-0.2-0.5,0-0.8C347.7,475.3,350,472,350.3,470.9z"/>
</g>
<g>
	<circle class="st9" cx="138.5" cy="308.3" r="20"/>
	<path id="Blue_1_" class="st3" d="M147.6,318.4c0.6,0,1.1-0.5,1.1-1.1v-18.1c0-0.6-0.5-1.1-1.1-1.1h-18.1c-0.6,0-1.1,0.5-1.1,1.1
		v18.1c0,0.6,0.5,1.1,1.1,1.1H147.6z"/>
	<path id="f" class="st9" d="M142.4,318.4v-7.9h2.6l0.4-3.1h-3v-2c0-0.9,0.2-1.5,1.5-1.5h1.6v-2.7c-0.3,0-1.2-0.1-2.4-0.1
		c-2.3,0-3.9,1.4-3.9,4.1v2.3h-2.6v3.1h2.6v7.9L142.4,318.4L142.4,318.4z"/>
</g>
<g>
	<circle class="st10" cx="203" cy="429.9" r="16.2"/>
	<g>
		<g id="g3365" transform="translate(420.064,651.1567)">
			<path id="path3367" class="st3" d="M-210.5-220.7l-2.6,2.6h-4.1l-2.2,2.2v-2.2h-3.4v-10.8h12.3V-220.7z M-224.4-230.4l-0.7,3
				v13.4h3.4v1.9h1.9l1.9-1.9h3l6-6v-10.5h-15.5V-230.4z"/>
		</g>
		<path id="path3369" class="st3" d="M201.3,429.7h1.5v-4.5h-1.5V429.7z M205.4,429.7h1.5v-4.5h-1.5V429.7z"/>
	</g>
</g>
<path class="st6" d="M253.7,254.6c0,0,4,82.7-24.5,114.3c-30,33.2-76.9,12.6-94.7,38"/>
<circle class="st11" cx="126.1" cy="419.5" r="16.6"/>
<circle class="st11" cx="126.1" cy="419.5" r="18.2"/>
<path class="st3" d="M123.3,410.2c5.2,0,0.5,0,5.7,0s6.4,1.2,6.4,6.4s0,0.5,0,5.7s-1.2,6.4-6.4,6.4s-0.5,0-5.7,0s-6.4-1.2-6.4-6.4
	c0-5.2,0-2.8,0-5.7C116.9,411.5,118.1,410.2,123.3,410.2z"/>
<path class="st11" d="M132,416.6c0.1-0.3,0-0.5-0.4-0.5h-1.3c-0.3,0-0.5,0.2-0.6,0.4c0,0-0.7,1.7-1.7,2.8c-0.3,0.3-0.5,0.4-0.6,0.4
	s-0.2-0.1-0.2-0.4v-2.7c0-0.3-0.1-0.5-0.4-0.5h-2.1c-0.2,0-0.3,0.2-0.3,0.3c0,0.3,0.5,0.4,0.5,1.3v2c0,0.4-0.1,0.5-0.3,0.5
	c-0.5,0-1.6-1.7-2.2-3.6c-0.1-0.4-0.3-0.5-0.6-0.5h-1.3c-0.4,0-0.5,0.2-0.5,0.4c0,0.4,0.5,2.1,2.1,4.5c1.1,1.6,2.7,2.5,4.1,2.5
	c0.9,0,1-0.2,1-0.5v-1.2c0-0.4,0.1-0.5,0.4-0.5c0.2,0,0.5,0.1,1.3,0.9c0.9,0.9,1.1,1.3,1.6,1.3h1.3c0.4,0,0.6-0.2,0.5-0.6
	s-0.6-0.9-1.1-1.6c-0.3-0.4-0.8-0.8-0.9-1c-0.2-0.3-0.1-0.4,0-0.6C130.2,419.7,131.8,417.4,132,416.6z"/>
<path class="st6" d="M248.8,254.7c0,0,8.6,100.8-91.7,60.8"/>
<g>
	<g>
		<path class="st3" d="M267,200.5c-0.9-2.8-3.9-5-7.3-5c-4.8,0-8,3.4-8,7.1c0,3.7,2.7,5.4,8,7c8.2,2.5,14.4,5.6,14.4,13.1
			s-6.4,12.4-14.4,12.4c-7.4,0-13.4-4.8-14.3-11.5h4.7c0.9,4.1,4.8,7.1,9.6,7.1c5.4,0,9.7-3.1,9.7-8c0-4-2.7-6.1-9.7-8.2
			c-8.2-2.5-12.7-5.5-12.7-11.9c0-6.5,5.1-11.5,12.7-11.5c6.2,0,11.2,3.9,12.2,9.4H267L267,200.5z"/>
	</g>
	<path class="st3" d="M265.6,221.7C265.6,221.7,265.6,221.7,265.6,221.7L265.6,221.7C265.6,221.7,265.6,221.7,265.6,221.7z"/>
	<path class="st3" d="M265.6,221.7c0,0,0-0.1,0-0.1l0,0V221.7z"/>
	<path class="st3" d="M287.4,207c0-15.5-12.6-28-28-28s-28,12.6-28,28c0,11.4,7.4,21.4,17.2,25.8c-1.9-1.9-3.9-4.5-4.4-7.2
		c-5.4-4.4-8.8-11.1-8.8-18.6c0-13.2,10.8-24,24-24c13.2,0,24,10.8,24,24c0,7.1-3.1,13.5-8,17.8c-0.2,2.6-1.7,4.9-3.2,6.8
		C281,227,287.4,217.7,287.4,207z"/>
	<path class="st3" d="M259.4,185.2c-11.4,0-20.8,9.1-21.2,20.4l3.3-2.3c1.5-8.5,9-15,17.9-15c8.7,0,16.1,6.2,17.8,14.5
		c1.5,0.6,2.6,1.1,3.3,1.5C279.4,193.6,270.3,185.2,259.4,185.2z"/>
</g>
</svg>
